<svg width="190" height="37" viewBox="0 0 190 37" fill="none" xmlns="http://www.w3.org/2000/svg">
<path d="M4.91309 10.3562C4.91309 10.3562 5.63561 9.73006 7.27332 9.8264C9.00736 10.0672 10.7896 10.9824 10.7896 10.9824M10.7896 10.9824L11.0304 10.3081C11.0304 10.3081 11.0786 10.0191 11.3194 9.92273C11.5603 9.8264 11.9456 9.87456 11.9456 9.87456C11.9456 9.87456 13.2943 9.87456 13.5833 9.77823C13.8723 9.68189 17.4849 7.08082 18.0148 7.03265C18.5446 6.98449 20.7122 6.88815 20.7122 6.88815M10.7896 10.9824L12.331 11.4641L13.1498 11.5199M20.7122 6.88815C20.7122 6.88815 19.3153 5.29861 19.2671 5.15411C19.219 5.0096 19.1708 4.88651 19.1708 4.72059C19.1708 4.55468 19.3153 4.38342 19.4116 4.33525C19.508 4.28708 19.8763 4.14258 19.8763 4.14258M20.7122 6.88815H21.9645M23.4096 5.39495L22.3981 3.99807C22.3981 3.99807 22.0609 3.61273 21.9164 3.56456C21.7719 3.51639 21.5792 3.46823 21.3865 3.51639C21.1939 3.56456 19.8763 4.14258 19.8763 4.14258M23.4096 5.39495L21.9645 6.88815M23.4096 5.39495L24.7583 6.74365M28.9489 2.84204L28.8044 2.16769L28.6117 1.58968C28.6117 1.58968 28.4191 1.15616 28.2746 0.963492C28.13 0.77082 28.13 0.77082 27.9374 0.674484C27.7447 0.578148 25.2881 0.598792 25.2881 0.598792M28.9489 2.84204C29.0452 3.17922 30.2976 4.33525 30.2976 4.33525L31.0683 5.44311L31.4536 6.0693M28.9489 2.84204C28.9489 2.84204 28.452 3.48345 28.3709 3.56456C28.2898 3.64567 28.0337 3.85357 27.841 3.94991C27.6484 4.04624 27.3112 4.09441 27.0704 4.10129C26.8295 4.10817 25.8662 4.10129 25.8662 4.10129M31.4536 6.0693C31.9353 6.59914 32.8987 6.02113 33.6212 5.82846C34.3437 5.63579 35.1626 5.63579 35.6924 5.63579C36.2223 5.63579 37.6191 5.63579 38.2453 5.73212C38.8715 5.82846 39.6422 5.97296 39.9794 6.0693C40.3165 6.16563 41.2417 6.4803 42.0506 6.74365M31.4536 6.0693C31.4536 6.0693 31.7426 6.93632 31.7426 7.2735C31.7426 7.61067 31.7426 7.85151 31.6463 8.18869C31.55 8.52586 31.3091 9.15204 31.1646 9.39289C31.0201 9.63373 30.2976 10.5489 30.2976 10.5489M42.0506 6.74365L41.7134 5.15411M42.0506 6.74365L46.0004 8.47769M41.7134 5.15411L40.6056 3.8054C40.6056 3.8054 40.0275 3.17922 39.9794 2.93838C39.9312 2.69754 39.9312 2.6012 40.0757 2.50487C40.2202 2.40853 40.3165 2.36036 40.6056 2.36036C40.8946 2.36036 41.2317 2.36036 41.2317 2.36036M41.7134 5.15411C41.7134 5.15411 42.3396 5.20227 42.6286 5.20227C42.9176 5.20227 43.303 5.20227 43.4956 5.15411C43.6883 5.10594 43.881 5.0096 44.0255 4.91327C44.17 4.81693 44.8443 4.14258 44.8443 4.14258M44.8443 4.14258L44.4108 3.27555C44.4108 3.27555 43.881 2.69754 43.7846 2.6012C43.6883 2.50487 43.4956 2.40853 43.303 2.36036C43.1103 2.31219 41.2317 2.36036 41.2317 2.36036M44.8443 4.14258L45.4224 4.81693L46.0004 5.58762C46.0004 5.58762 46.2894 5.97296 46.3375 6.26197C46.3857 6.55098 46.3375 8.14052 46.3375 8.14052M46.3375 8.14052C46.3375 8.14052 47.9271 6.93632 48.1198 6.55098C48.3124 6.16563 48.2161 5.39495 48.2161 5.39495C48.2161 5.39495 48.1679 4.52792 48.0716 4.43159M46.3375 8.14052L46.0004 8.47769M48.0716 4.43159L47.7826 3.99807C47.7826 3.99807 47.5417 3.70907 47.4454 3.51639C47.3491 3.32372 47.0601 2.40853 47.0601 2.40853C47.0601 2.40853 46.6747 1.20433 46.7711 0.963492C46.8674 0.722652 47.7826 0.674484 47.7826 0.674484M48.0716 4.43159H48.4088C48.4088 4.43159 48.7941 4.38342 49.0831 4.33525C49.3721 4.28708 49.6611 4.23891 50.0946 3.99807C50.5282 3.75723 51.4193 2.86613 51.4193 2.86613M47.7826 0.674484C47.7826 0.674484 49.1313 0.52998 49.3721 0.578148C49.613 0.626316 49.6611 0.722652 49.7575 0.818988C49.8538 0.915325 51.347 2.64937 51.347 2.64937L51.4193 2.86613M47.7826 0.674484L48.8423 2.55303M56.79 27.215L56.3083 26.1072C56.3083 26.1072 55.8748 25.3365 55.7303 25.1438C55.5858 24.9511 55.2004 24.614 54.8151 24.4213C54.4298 24.2286 53.7554 24.4695 53.6109 24.2768C53.4664 24.0841 54.0444 23.2653 54.1889 22.9763C54.3334 22.6872 54.8151 21.1459 54.8633 20.905C54.9114 20.6642 55.1523 19.7008 55.2005 19.46C55.2486 19.2192 55.2486 16.9071 55.2486 16.7626C55.2486 16.6181 55.0078 14.9322 54.9596 14.6914C54.9114 14.4505 54.3334 12.7646 54.2371 12.5238C54.1408 12.283 53.1774 10.2599 53.1292 10.1636C53.0811 10.0672 52.4067 8.7667 52.3585 8.57403C52.3104 8.38136 52.3104 8.14052 52.3585 7.89968C52.4067 7.65884 52.6475 7.418 52.7439 7.08082C52.8402 6.74365 52.8884 5.49128 52.7439 5.0096C52.5994 4.52792 52.1177 3.90174 52.1177 3.90174L51.4915 3.08288L51.4193 2.86613M56.79 27.215L57.1272 27.2632C57.1272 27.2632 57.8979 27.793 58.0424 27.9376C58.1869 28.0821 58.2832 28.2266 58.3314 28.4192C58.3795 28.6119 58.2832 29.2863 58.2832 29.2863L58.0905 30.1533L57.8497 29.3826L57.4643 28.9491L57.079 28.6601H56.8382M56.79 27.215C56.9827 27.7449 56.8382 28.6601 56.8382 28.6601M56.8382 28.6601C56.7418 28.9972 56.5492 29.5271 56.4528 29.7679C56.3565 30.0088 56.1638 30.2978 55.923 30.4905C55.923 30.4905 55.5858 30.7795 55.1523 30.7795C54.7188 30.7795 54.4298 30.5386 54.4298 30.5386C54.2853 30.4423 54.0444 30.1533 53.9481 30.0088C53.8517 29.8643 53.7072 29.5753 53.6591 29.2863C53.6109 28.9972 53.6591 28.5637 53.8036 28.1784C53.9481 27.793 53.9963 27.7449 54.1889 27.5522C54.3816 27.3595 54.5261 27.215 54.5261 27.215M54.5261 27.215L54.0444 26.8297C54.0444 26.8297 53.9481 26.6852 53.7072 26.6852C53.4664 26.6852 52.9366 26.6852 52.7439 26.7815C52.5512 26.8779 52.3585 27.0705 52.3585 27.0705L51.4433 27.8894C51.4433 27.8894 49.5648 29.4308 49.1795 29.7198C48.7941 30.0088 47.7344 30.7313 47.4936 30.8758C47.2527 31.0203 44.9888 32.2727 44.6517 32.4172C44.3145 32.5617 41.4726 33.6695 41.1354 33.7659C40.7982 33.8622 39.4495 34.1994 39.1605 34.2476C38.8715 34.2957 37.2338 34.5847 36.8003 34.5847C36.3668 34.5847 32.1762 34.6811 31.7426 34.6811C31.3091 34.6811 29.6714 34.5366 29.2861 34.4884C28.9007 34.4402 26.3478 34.1512 26.0107 34.1031C25.6735 34.0549 23.3133 33.5732 23.3133 33.5732L21.82 33.236L20.953 32.9952M54.5261 27.215L55.0078 27.8894L55.1041 28.9491M20.953 32.9952C20.953 32.9952 20.7122 33.2842 20.5677 33.525C20.4232 33.7659 20.3268 34.1512 20.2787 34.3921C20.2305 34.6329 20.2305 35.2591 20.2305 35.4036C20.2305 35.5481 20.1823 35.7889 20.1342 35.9334C20.086 36.0779 19.9415 36.1743 19.8452 36.2224C19.7488 36.2706 19.6525 36.3188 19.5562 36.3188C19.4598 36.3188 18.7855 36.3669 18.641 36.2706C18.4965 36.1743 18.3038 35.9816 18.3038 35.9816C18.3038 35.9816 17.9666 35.5963 17.8221 35.4036C17.6776 35.2109 17.2441 34.5847 17.1959 34.3439C17.1478 34.1031 17.1478 32.2245 17.1478 32.2245M20.953 32.9952L21.242 32.369L22.1091 31.3093L22.9761 29.8643L23.5059 28.9009L23.5541 26.5889M9.87439 27.3595C9.87439 27.3595 9.48904 27.6967 9.34454 27.8412C9.20004 27.9857 9.05553 28.1784 8.91103 28.3711C8.76652 28.5637 8.47752 28.9972 8.47752 28.9972C8.47752 28.9972 8.23668 29.3344 8.14034 29.5271C8.044 29.7198 7.94767 29.8643 7.8995 30.2014C7.85133 30.5386 7.8995 33.4287 7.8995 33.5732C7.8995 33.7177 7.94767 33.8622 8.044 34.0549C8.14034 34.2476 8.42935 34.5366 8.57385 34.6811C8.71836 34.8256 9.05553 35.1146 9.05553 35.1146C9.05553 35.1146 9.2482 35.3073 9.39271 35.3554C9.53721 35.4036 10.1152 35.4036 10.2597 35.3554C10.4042 35.3073 10.4042 35.3073 10.5006 35.1628C10.5969 35.0182 10.6451 34.8256 10.6451 34.8256C10.6451 34.8256 10.7414 34.3921 10.7896 34.1031C10.8377 33.814 10.8377 33.814 11.0304 33.525C11.2231 33.236 12.2828 32.2727 12.2828 32.2727C12.2828 32.2727 12.62 31.8873 12.8126 31.791C13.0053 31.6947 13.198 31.6465 13.198 31.6465M9.87439 27.3595L9.58538 26.8297L9.29637 26.0108L8.9592 24.7585C8.9592 24.7585 8.76652 23.8914 8.71836 23.7469C8.67019 23.6024 8.57385 23.4098 8.47752 23.2653C8.38118 23.1208 7.61049 22.4464 7.51416 22.1092C7.41782 21.7721 7.41782 21.3385 7.41782 21.3385V20.1825M9.87439 27.3595L11.2231 28.8046M7.36965 17.3406V16.3772M7.36965 16.3772L6.6953 16.4736C6.6953 16.4736 6.06912 16.5699 5.82828 16.3291C5.58744 16.0882 5.68377 15.9437 5.68377 15.9437M7.36965 16.3772L8.28484 16.2327M46.0004 8.47769L44.8443 9.29655C44.8443 9.29655 44.2663 9.63372 43.9773 10.1636C43.6883 10.6934 43.5438 11.4641 43.4956 11.8495C43.4475 12.2348 43.303 13.1018 43.3993 13.8725C43.4956 14.6432 43.7365 15.173 43.8328 15.4621C43.9291 15.7511 44.459 16.9553 44.5553 17.1961C44.6517 17.4369 45.0852 18.1595 45.0852 18.1595M21.9645 6.88815C21.9645 6.88815 24.1321 6.88815 24.3248 6.88815C24.5175 6.88815 24.951 6.88815 25.2881 6.83998C25.6253 6.79181 25.9625 6.31014 25.9625 6.31014C25.9625 6.31014 26.2033 5.73212 26.2515 5.58762C26.2997 5.44311 26.3478 5.29861 26.2997 5.10594C26.2515 4.91327 26.0107 4.33525 26.0107 4.33525L25.8662 4.10129M19.8763 4.14258L20.7122 5.44311M25.8662 4.10129C25.8662 4.10129 25.1436 2.98655 24.9991 2.69754C24.8305 2.36036 24.4211 1.54151 24.3729 1.397C24.3248 1.2525 24.2284 1.05983 24.3248 0.867156C24.4211 0.674484 24.5175 0.626316 24.662 0.578148C24.8065 0.52998 25.2881 0.598792 25.2881 0.598792M25.2881 0.598792L26.3478 2.64937M41.2317 2.36036L41.9543 3.51639M18.8818 32.8507C18.8818 32.8507 18.641 32.3208 18.8818 31.6947C19.1226 31.0685 19.7007 30.5868 19.7007 30.5868C19.7007 30.5868 20.953 29.6716 21.0975 29.1418C21.242 28.6119 21.1457 27.1669 21.1457 27.1669M12.1383 30.0088C12.1383 30.0088 11.8011 30.1051 11.6084 30.2496C11.4158 30.3941 9.68172 32.2727 9.58538 32.4172C9.48904 32.5617 9.39271 32.9952 9.39271 32.9952M8.28484 16.2327L9.29637 15.2212M8.28484 16.2327C8.28484 16.2327 9.20004 16.3772 9.58538 16.4254C9.97072 16.4736 10.5487 16.4736 11.0304 16.3772C11.5121 16.2809 11.8011 16.2327 11.9938 16.0401C12.1865 15.8474 12.62 15.0767 12.62 15.0767M13.3425 16.6663L14.1132 16.0401C14.1132 16.0401 14.3058 15.8474 14.7394 15.6547C15.1729 15.4621 15.9917 15.4621 15.9917 15.4621M16.4252 11.3678L17.1959 10.7416L16.5216 10.5971M16.4252 11.3678L14.8357 11.5616M16.4252 11.3678L16.5216 10.5971M13.1498 11.5199L14.4503 11.6086L14.8357 11.5616M13.1498 11.5199C13.1498 11.5199 13.2943 10.8861 13.4388 10.6934C13.5833 10.5007 13.776 10.4044 13.9687 10.3562C14.1613 10.3081 14.5467 10.4044 14.6912 10.5489C14.8357 10.6934 14.8357 11.5616 14.8357 11.5616M14.8357 11.5616C14.8357 11.5616 15.1729 10.6453 15.3174 10.5007C15.4619 10.3562 15.6545 10.3562 15.8954 10.3562C16.1362 10.3562 16.5216 10.5971 16.5216 10.5971M23.6986 15.0285C23.6986 15.0285 22.3981 13.0055 22.3981 11.8495C22.3981 10.6934 23.2169 9.68189 23.2169 9.68189L24.5175 8.04418L24.9991 7.46617L25.6542 6.64731L25.2881 6.93632" stroke="white" stroke-width="0.48168" stroke-linecap="round"/>
<path d="M7.70687 13.3424C7.70687 14.1082 7.30338 14.8145 6.6253 15.3354C5.94701 15.8566 5.00171 16.1844 3.94977 16.1844C2.89783 16.1844 1.95253 15.8566 1.27425 15.3354C0.596162 14.8145 0.192672 14.1082 0.192672 13.3424C0.192672 12.5767 0.596162 11.8704 1.27425 11.3495C1.95253 10.8283 2.89783 10.5005 3.94977 10.5005C5.00171 10.5005 5.94701 10.8283 6.6253 11.3495C7.30338 11.8704 7.70687 12.5767 7.70687 13.3424Z" stroke="white" stroke-width="0.385344"/>
<ellipse cx="2.40645" cy="13.2945" rx="1.60321" ry="1.14085" transform="rotate(91.6778 2.40645 13.2945)" fill="white"/>
<ellipse cx="5.12914" cy="13.3887" rx="1.60321" ry="1.133" transform="rotate(91.6778 5.12914 13.3887)" fill="white"/>
<circle cx="8.14047" cy="18.7374" r="1.49321" stroke="white" stroke-width="0.385344"/>
<circle cx="7.85128" cy="18.5446" r="0.626184" fill="white"/>
<circle cx="14.6911" cy="18.4485" r="0.626184" fill="white"/>
<circle cx="14.8839" cy="18.4484" r="1.68588" stroke="white" stroke-width="0.385344"/>
<path d="M2.45647 12.7165C2.45647 12.7165 1.92661 12.861 1.97478 13.5835C2.02294 14.306 2.45646 14.5468 2.45646 14.5468M5.2502 12.6201C5.2502 12.6201 5.02831 12.655 4.91303 12.9091C4.8462 13.0564 4.79902 13.3183 4.81669 13.5835C4.83697 13.8876 4.8852 14.1064 4.9612 14.2578C5.06573 14.4661 5.2502 14.5468 5.2502 14.5468" stroke="black" stroke-width="0.48168" stroke-linecap="round"/>
<path d="M14.9803 28.4192L15.1729 27.9857L14.7876 27.1187L17.1478 29.1899V32.2245L16.4253 32.5135L16.1845 31.6464L15.7991 31.9354L15.8954 33.236L15.5583 34.0067L14.9321 33.3323L14.4504 32.1281L14.2577 31.2129L13.7761 31.5983L13.1499 31.6464V30.6349L12.1865 30.3459L12.1383 29.4789H11.0786L10.4043 29.238L11.8012 28.5637L12.6682 28.4674M14.9803 28.4192L15.7509 29.5271M14.9803 28.4192L14.0651 28.371L12.1865 27.3113L12.7645 27.9857L12.6682 28.4674M12.6682 28.4674L13.2462 28.8527" stroke="white" stroke-width="0.48168"/>
<path d="M33.1397 4.86492C32.947 4.86492 31.502 5.2021 31.502 5.3466C31.502 5.4911 32.8507 5.4911 33.0434 5.44294C33.2361 5.39477 34.6811 5.05759 34.6811 4.91309C34.6811 4.76858 33.3324 4.86492 33.1397 4.86492Z" fill="white"/>
<path d="M30.2015 2.36019C29.8964 2.37624 29.1899 2.36019 29.1899 2.55286C29.1899 2.74553 30.1051 2.74553 30.1051 2.74553H32.0319C32.0319 2.74553 33.1397 2.7937 33.1397 2.60103C33.1397 2.40835 32.08 2.36019 32.08 2.36019H30.2015Z" fill="white"/>
<path d="M36.4151 0.722475L34.8256 0.577971L35.3554 0.385299L36.2706 0.288963L37.0413 0.192627H40.4131L41.2319 0.288963L41.3764 0.481635L41.0874 0.674307V0.481635L40.3649 0.385299H37.812H37.2822L36.4151 0.722475Z" fill="white"/>
<path d="M38.101 3.32354C37.7638 3.3396 36.9739 3.32354 36.8968 3.32354L37.234 3.56438L38.3419 3.51622L38.101 3.32354Z" fill="white"/>
<path d="M39.1607 0.481635L38.968 0.722475L39.5942 0.770643L39.8832 0.529803L39.1607 0.481635Z" fill="white"/>
<path d="M46.6267 1.39683L45.4225 1.734H46.2896L47.4938 1.54133L47.9273 0.963314L46.9639 0.529803L46.5304 0.915147L46.6267 1.39683Z" fill="white"/>
<path d="M52.0697 2.84187C52.0312 2.80333 51.7968 2.7937 51.6844 2.7937L51.0582 2.64919L50.8174 2.7937L51.7807 3.13087H52.2624C52.2142 3.05059 52.1083 2.8804 52.0697 2.84187Z" fill="white"/>
<path d="M56.5975 4.43141L54.8635 4.52774L55.4415 4.76858H57.2237L59.1986 4.72042L58.1871 4.52774L56.5975 4.43141Z" fill="white"/>
<path d="M61.3661 1.87851C60.4188 1.81428 58.505 1.6762 58.4279 1.63767L59.5839 2.26385L61.3661 1.87851Z" fill="white"/>
<path d="M62.474 0.722475L61.2216 0.770643V1.01148L62.2332 0.963314L62.474 0.722475Z" fill="white"/>
<path d="M66.1348 3.37171H64.5452L64.6897 3.70889L65.5086 3.94973L68.0133 4.1424L69.9882 3.94973L70.2291 3.61255L69.362 3.90156L67.8688 3.94973L66.0866 3.75706L65.8939 3.61255L66.1348 3.37171Z" fill="white"/>
<path d="M68.6877 3.51622C68.6491 3.51622 68.1899 3.64466 67.9652 3.70889L68.495 3.80522L68.7358 3.70889L69.2657 3.61255C69.0891 3.58044 68.7262 3.51622 68.6877 3.51622Z" fill="white"/>
<path d="M69.6029 2.36019C69.4584 2.40835 69.1597 2.51432 69.1212 2.55286L69.94 2.64919L70.5181 2.36019H69.6029Z" fill="white"/>
<path d="M72.0594 0.722475L71.8186 0.337131L72.2521 0.385299L72.5893 0.529803L73.2636 0.337131L72.782 0.770643L72.0594 0.722475Z" fill="white"/>
<path d="M77.8394 4.67229C77.6468 4.67229 76.2017 5.00947 76.2017 5.15397C76.2017 5.29848 77.5504 5.29848 77.7431 5.25031C77.9358 5.20214 79.3808 4.86496 79.3808 4.72046C79.3808 4.57596 78.0321 4.67229 77.8394 4.67229Z" fill="white"/>
<path d="M74.9012 2.16756C74.5961 2.18361 73.8896 2.16756 73.8896 2.36023C73.8896 2.5529 74.8048 2.5529 74.8048 2.5529H76.7316C76.7316 2.5529 77.8394 2.60107 77.8394 2.4084C77.8394 2.21573 76.7797 2.16756 76.7797 2.16756H74.9012Z" fill="white"/>
<path d="M81.1148 0.529848L79.5253 0.385344L80.0551 0.192672L80.9703 0.0963359L81.741 0H85.1128L85.9316 0.0963359L86.0761 0.289008L85.7871 0.48168V0.289008L85.0646 0.192672H82.5117H81.9819L81.1148 0.529848Z" fill="white"/>
<path d="M82.8007 3.13092C82.4635 3.14697 81.6736 3.13092 81.5965 3.13092L81.9337 3.37176L83.0416 3.32359L82.8007 3.13092Z" fill="white"/>
<path d="M83.8604 0.289008L83.6677 0.529848L84.2939 0.578016L84.5829 0.337176L83.8604 0.289008Z" fill="white"/>
<path d="M91.3265 1.2042L90.1223 1.54138H90.9893L92.1935 1.3487L92.627 0.770688L91.6636 0.337176L91.2301 0.72252L91.3265 1.2042Z" fill="white"/>
<path d="M96.7694 2.64924C96.7309 2.6107 96.4965 2.60107 96.3841 2.60107L95.7579 2.45657L95.5171 2.60107L96.4804 2.93825H96.9621C96.9139 2.85797 96.808 2.68777 96.7694 2.64924Z" fill="white"/>
<path d="M101.297 4.23878L99.5632 4.33512L100.141 4.57596H101.923L103.898 4.52779L102.887 4.33512L101.297 4.23878Z" fill="white"/>
<path d="M106.066 1.68588C105.119 1.62165 103.205 1.48357 103.128 1.44504L104.284 2.07122L106.066 1.68588Z" fill="white"/>
<path d="M107.174 0.529848L105.921 0.578016V0.818855L106.933 0.770688L107.174 0.529848Z" fill="white"/>
<path d="M110.834 3.17909H109.245L109.389 3.51626L110.208 3.7571L112.713 3.94977L114.688 3.7571L114.929 3.41993L114.062 3.70893L112.569 3.7571L110.786 3.56443L110.594 3.41993L110.834 3.17909Z" fill="white"/>
<path d="M113.387 3.32359C113.349 3.32359 112.89 3.45204 112.665 3.51626L113.195 3.6126L113.436 3.51626L113.965 3.41993C113.789 3.38781 113.426 3.32359 113.387 3.32359Z" fill="white"/>
<path d="M114.303 2.16756C114.158 2.21573 113.859 2.3217 113.821 2.36023L114.64 2.45657L115.218 2.16756H114.303Z" fill="white"/>
<path d="M116.759 0.529848L116.518 0.144504L116.952 0.192672L117.289 0.337176L117.963 0.144504L117.482 0.578016L116.759 0.529848Z" fill="white"/>
<g opacity="0.8">
<path d="M116.95 4.67229C116.757 4.67229 115.312 5.00947 115.312 5.15397C115.312 5.29848 116.661 5.29848 116.853 5.25031C117.046 5.20214 118.491 4.86496 118.491 4.72046C118.491 4.57596 117.142 4.67229 116.95 4.67229Z" fill="white"/>
<path d="M114.012 2.16756C113.706 2.18361 113 2.16756 113 2.36023C113 2.5529 113.915 2.5529 113.915 2.5529H115.842C115.842 2.5529 116.95 2.60107 116.95 2.4084C116.95 2.21573 115.89 2.16756 115.89 2.16756H114.012Z" fill="white"/>
<path d="M120.225 0.529848L118.636 0.385344L119.166 0.192672L120.081 0.0963359L120.851 0H124.223L125.042 0.0963359L125.186 0.289008L124.897 0.48168V0.289008L124.175 0.192672H121.622H121.092L120.225 0.529848Z" fill="white"/>
<path d="M121.911 3.13092C121.574 3.14697 120.784 3.13092 120.707 3.13092L121.044 3.37176L122.152 3.32359L121.911 3.13092Z" fill="white"/>
<path d="M122.971 0.289008L122.778 0.529848L123.404 0.578016L123.693 0.337176L122.971 0.289008Z" fill="white"/>
<path d="M130.437 1.2042L129.233 1.54138H130.1L131.304 1.3487L131.737 0.770688L130.774 0.337176L130.34 0.72252L130.437 1.2042Z" fill="white"/>
<path d="M135.88 2.64924C135.841 2.6107 135.607 2.60107 135.494 2.60107L134.868 2.45657L134.627 2.60107L135.591 2.93825H136.072C136.024 2.85797 135.918 2.68777 135.88 2.64924Z" fill="white"/>
<path d="M140.408 4.23878L138.674 4.33512L139.252 4.57596H141.034L143.009 4.52779L141.997 4.33512L140.408 4.23878Z" fill="white"/>
<path d="M145.176 1.68588C144.229 1.62165 142.315 1.48357 142.238 1.44504L143.394 2.07122L145.176 1.68588Z" fill="white"/>
<path d="M146.284 0.529848L145.032 0.578016V0.818855L146.043 0.770688L146.284 0.529848Z" fill="white"/>
<path d="M149.945 3.17909H148.355L148.5 3.51626L149.319 3.7571L151.823 3.94977L153.798 3.7571L154.039 3.41993L153.172 3.70893L151.679 3.7571L149.897 3.56443L149.704 3.41993L149.945 3.17909Z" fill="white"/>
<path d="M152.498 3.32359C152.459 3.32359 152 3.45204 151.775 3.51626L152.305 3.6126L152.546 3.51626L153.076 3.41993C152.899 3.38781 152.536 3.32359 152.498 3.32359Z" fill="white"/>
<path d="M153.413 2.16756C153.268 2.21573 152.97 2.3217 152.931 2.36023L153.75 2.45657L154.328 2.16756H153.413Z" fill="white"/>
<path d="M155.869 0.529848L155.629 0.144504L156.062 0.192672L156.399 0.337176L157.074 0.144504L156.592 0.578016L155.869 0.529848Z" fill="white"/>
</g>
<g opacity="0.8">
<path d="M148.95 4.67229C148.757 4.67229 147.312 5.00947 147.312 5.15397C147.312 5.29848 148.661 5.29848 148.853 5.25031C149.046 5.20214 150.491 4.86496 150.491 4.72046C150.491 4.57596 149.142 4.67229 148.95 4.67229Z" fill="white"/>
<path d="M146.012 2.16756C145.706 2.18361 145 2.16756 145 2.36023C145 2.5529 145.915 2.5529 145.915 2.5529H147.842C147.842 2.5529 148.95 2.60107 148.95 2.4084C148.95 2.21573 147.89 2.16756 147.89 2.16756H146.012Z" fill="white"/>
<path d="M152.225 0.529848L150.636 0.385344L151.166 0.192672L152.081 0.0963359L152.851 0H156.223L157.042 0.0963359L157.186 0.289008L156.897 0.48168V0.289008L156.175 0.192672H153.622H153.092L152.225 0.529848Z" fill="white"/>
<path d="M153.911 3.13092C153.574 3.14697 152.784 3.13092 152.707 3.13092L153.044 3.37176L154.152 3.32359L153.911 3.13092Z" fill="white"/>
<path d="M154.971 0.289008L154.778 0.529848L155.404 0.578016L155.693 0.337176L154.971 0.289008Z" fill="white"/>
<path d="M162.437 1.2042L161.233 1.54138H162.1L163.304 1.3487L163.737 0.770688L162.774 0.337176L162.34 0.72252L162.437 1.2042Z" fill="white"/>
<path d="M167.88 2.64924C167.841 2.6107 167.607 2.60107 167.494 2.60107L166.868 2.45657L166.627 2.60107L167.591 2.93825H168.072C168.024 2.85797 167.918 2.68777 167.88 2.64924Z" fill="white"/>
<path d="M172.408 4.23878L170.674 4.33512L171.252 4.57596H173.034L175.009 4.52779L173.997 4.33512L172.408 4.23878Z" fill="white"/>
<path d="M177.176 1.68588C176.229 1.62165 174.315 1.48357 174.238 1.44504L175.394 2.07122L177.176 1.68588Z" fill="white"/>
<path d="M178.284 0.529848L177.032 0.578016V0.818855L178.043 0.770688L178.284 0.529848Z" fill="white"/>
<path d="M181.945 3.17909H180.355L180.5 3.51626L181.319 3.7571L183.823 3.94977L185.798 3.7571L186.039 3.41993L185.172 3.70893L183.679 3.7571L181.897 3.56443L181.704 3.41993L181.945 3.17909Z" fill="white"/>
<path d="M184.498 3.32359C184.459 3.32359 184 3.45204 183.775 3.51626L184.305 3.6126L184.546 3.51626L185.076 3.41993C184.899 3.38781 184.536 3.32359 184.498 3.32359Z" fill="white"/>
<path d="M185.413 2.16756C185.268 2.21573 184.97 2.3217 184.931 2.36023L185.75 2.45657L186.328 2.16756H185.413Z" fill="white"/>
<path d="M187.869 0.529848L187.629 0.144504L188.062 0.192672L188.399 0.337176L189.074 0.144504L188.592 0.578016L187.869 0.529848Z" fill="white"/>
</g>
</svg>
